<svg width="923" height="540" viewBox="0 0 923 540" fill="none" xmlns="http://www.w3.org/2000/svg">
<path fill-rule="evenodd" clip-rule="evenodd" d="M449.724 2.60117C449.417 4.38367 448.926 7.41717 448.634 9.34217C447.889 14.2422 446.609 20.1792 446.075 21.2102C445.828 21.6877 445.625 22.7432 445.625 23.5557C445.625 24.3682 445.4 25.1722 445.125 25.3422C444.85 25.5122 444.625 26.2997 444.625 27.0922C444.625 27.8847 444.4 28.6722 444.125 28.8422C443.85 29.0122 443.625 29.9252 443.625 30.8717C443.625 31.8182 443.4 32.5922 443.125 32.5922C442.85 32.5922 442.625 33.3797 442.625 34.3422C442.625 35.3047 442.4 36.0922 442.125 36.0922C441.85 36.0922 441.625 36.7672 441.625 37.5922C441.625 38.4172 441.4 39.0922 441.125 39.0922C440.85 39.0922 440.625 39.8797 440.625 40.8422C440.625 41.8047 440.4 42.5922 440.125 42.5922C439.85 42.5922 439.625 42.9702 439.625 43.4317C439.625 44.6422 438.193 48.9962 437.067 51.2102C436.824 51.6877 436.625 52.4942 436.625 53.0022C436.625 53.5102 436.473 54.0782 436.286 54.2642C435.97 54.5807 434.936 57.3802 432.933 63.3422C432.472 64.7172 431.876 66.2327 431.609 66.7102C431.343 67.1877 431.125 68.0182 431.125 68.5557C431.125 69.0932 430.9 69.6722 430.625 69.8422C430.35 70.0122 430.125 70.8127 430.125 71.6217C430.125 72.4307 429.9 73.0922 429.625 73.0922C429.35 73.0922 429.125 73.7672 429.125 74.5922C429.125 75.4172 428.9 76.0922 428.625 76.0922C428.35 76.0922 428.125 76.6547 428.125 77.3422C428.125 78.0297 427.9 78.5922 427.625 78.5922C427.35 78.5922 427.125 79.3797 427.125 80.3422C427.125 81.3047 426.9 82.0922 426.625 82.0922C426.35 82.0922 426.125 82.7672 426.125 83.5922C426.125 84.4172 425.9 85.0922 425.625 85.0922C425.35 85.0922 425.125 85.8797 425.125 86.8422C425.125 87.8047 424.9 88.5922 424.625 88.5922C424.35 88.5922 424.125 89.2537 424.125 90.0627C424.125 90.8717 423.9 91.6722 423.625 91.8422C423.35 92.0122 423.125 92.7002 423.125 93.3717C423.125 94.9042 422.335 94.9692 421.964 93.4672C421.467 91.4607 418.071 75.3907 417.789 73.7127C417.638 72.8162 417.315 71.9592 417.07 71.8082C416.825 71.6567 416.625 70.9842 416.625 70.3127C416.625 68.8112 415.151 68.6362 414.77 70.0922C414.626 70.6422 414.31 71.0922 414.067 71.0922C413.824 71.0922 413.625 71.5422 413.625 72.0922C413.625 72.6422 413.4 73.0922 413.125 73.0922C412.85 73.0922 412.625 72.4172 412.625 71.5922C412.625 70.7672 412.4 70.0922 412.125 70.0922C411.85 70.0922 411.625 68.9512 411.625 67.5567C411.625 65.0257 410.881 63.6087 409.536 63.5762C408.088 63.5417 405.625 60.3087 405.625 58.4437C405.625 58.0597 405.208 57.2642 404.698 56.6762L403.771 55.6067L402.893 57.7247C401.311 61.5432 401.125 62.1262 401.125 63.2657C401.125 63.8852 400.923 64.6062 400.676 64.8672C400.43 65.1282 400.085 66.3547 399.91 67.5922C399.448 70.8692 398.209 92.0607 398.164 97.4672C398.141 100.191 397.92 102.092 397.625 102.092C397.35 102.092 397.125 102.542 397.125 103.092C397.125 103.642 397.35 104.092 397.625 104.092C397.9 104.092 398.125 104.542 398.125 105.092C398.125 105.642 398.35 106.092 398.625 106.092C398.9 106.092 399.125 106.484 399.125 106.964C399.125 107.806 404.491 119.085 405.133 119.592C406.637 120.781 406.893 128.591 405.698 136.842C404.461 145.381 404.115 147.456 403.636 149.217C402.267 154.244 401.919 155.38 401.608 155.842C401.422 156.117 400.964 157.411 400.589 158.717C400.214 160.024 399.731 161.092 399.516 161.092C399.301 161.092 399.125 161.767 399.125 162.592C399.125 163.417 398.9 164.092 398.625 164.092C398.35 164.092 398.125 164.767 398.125 165.592C398.125 166.417 397.9 167.092 397.625 167.092C397.35 167.092 397.125 167.655 397.125 168.342C397.125 169.03 396.9 169.592 396.625 169.592C396.35 169.592 396.125 170.267 396.125 171.092C396.125 171.917 395.9 172.592 395.625 172.592C395.35 172.592 395.125 173.267 395.125 174.092C395.125 174.917 394.9 175.592 394.625 175.592C394.35 175.592 394.125 176.267 394.125 177.092C394.125 177.917 393.9 178.592 393.625 178.592C393.35 178.592 393.125 179.158 393.125 179.849C393.125 180.54 392.919 181.497 392.667 181.974C392.415 182.452 391.825 184.154 391.357 185.758C390.787 187.714 390.341 188.508 390.003 188.17C389.476 187.643 388.307 181.058 387.789 175.704C387.623 173.978 387.292 172.446 387.056 172.299C386.819 172.153 386.625 170.597 386.625 168.842C386.625 167.087 386.4 165.512 386.125 165.342C385.85 165.172 385.625 163.922 385.625 162.563C385.625 161.204 385.4 160.092 385.125 160.092C384.85 160.092 384.625 160.542 384.625 161.092C384.625 161.642 384.4 162.092 384.125 162.092C383.85 162.092 383.625 162.767 383.625 163.592C383.625 164.417 383.4 165.092 383.125 165.092C382.85 165.092 382.625 166.105 382.625 167.342C382.625 168.58 382.4 169.592 382.125 169.592C381.85 169.592 381.625 170.38 381.625 171.342C381.625 172.305 381.4 173.092 381.125 173.092C380.85 173.092 380.625 173.88 380.625 174.842C380.625 175.805 380.4 176.592 380.125 176.592C379.85 176.592 379.625 177.267 379.625 178.092C379.625 178.917 379.4 179.592 379.125 179.592C378.85 179.592 378.625 180.27 378.625 181.099C378.625 181.928 378.422 182.997 378.174 183.474C377.926 183.952 377.491 185.242 377.209 186.342C376.926 187.442 376.355 189.58 375.939 191.092C374.301 197.048 373.536 204.556 373.653 213.546C373.764 222.146 373.381 226.521 372.375 228.154C371.809 229.073 367.059 231.592 365.892 231.592C365.47 231.592 365.125 231.817 365.125 232.092C365.125 232.367 364.45 232.592 363.625 232.592C362.8 232.592 362.125 232.817 362.125 233.092C362.125 233.367 361.563 233.592 360.875 233.592C360.188 233.592 359.625 233.817 359.625 234.092C359.625 234.367 358.95 234.592 358.125 234.592C357.3 234.592 356.625 234.817 356.625 235.092C356.625 235.367 355.95 235.592 355.125 235.592C354.3 235.592 353.625 235.817 353.625 236.092C353.625 236.367 353.175 236.592 352.625 236.592C352.075 236.592 351.625 236.817 351.625 237.092C351.625 237.367 350.95 237.592 350.125 237.592C349.3 237.592 348.625 237.817 348.625 238.092C348.625 238.367 347.95 238.592 347.125 238.592C346.3 238.592 345.625 238.817 345.625 239.092C345.625 239.367 345.076 239.592 344.405 239.592C343.733 239.592 343.045 239.817 342.875 240.092C342.705 240.367 342.036 240.592 341.387 240.592C340.739 240.592 340.134 240.761 340.042 240.967C339.877 241.338 339.083 241.64 328.375 245.407C325.35 246.472 322.8 247.511 322.709 247.717C322.617 247.924 321.46 248.092 320.137 248.092C317.155 248.092 316.875 247.521 318.118 243.984C319.103 241.18 319.095 240.971 317.604 231.092C315.989 220.395 314.696 203.242 314.043 183.842C313.793 176.417 313.371 165.28 313.104 159.092C312.837 152.905 312.497 144.299 312.348 139.967C312.195 135.503 311.871 132.092 311.601 132.092C311.34 132.092 311.118 131.473 311.109 130.717C311.094 129.408 310.127 127.592 309.445 127.592C309.269 127.592 309.125 128.38 309.125 129.342C309.125 130.305 308.9 131.092 308.625 131.092C308.347 131.092 308.125 132.426 308.125 134.092C308.125 135.759 307.903 137.092 307.625 137.092C307.35 137.092 307.125 138.33 307.125 139.842C307.125 141.355 306.921 142.592 306.672 142.592C306.422 142.592 306.094 143.774 305.942 145.217C305.613 148.352 304.876 153.306 304.174 157.092C303.894 158.605 303.439 161.192 303.163 162.842C302.887 164.492 302.082 168.542 301.375 171.842C300.668 175.142 299.851 179.08 299.561 180.592C299.27 182.105 298.812 184.355 298.543 185.592C298.273 186.83 297.934 188.799 297.789 189.967C297.643 191.136 297.322 192.092 297.075 192.092C296.828 192.092 296.625 193.217 296.625 194.592C296.625 195.967 296.4 197.092 296.125 197.092C295.85 197.092 295.625 198.105 295.625 199.342C295.625 200.58 295.4 201.592 295.125 201.592C294.847 201.592 294.625 202.926 294.625 204.592C294.625 206.259 294.403 207.592 294.125 207.592C293.85 207.592 293.625 208.83 293.625 210.342C293.625 211.855 293.4 213.092 293.125 213.092C292.847 213.092 292.625 214.426 292.625 216.092C292.625 217.759 292.403 219.092 292.125 219.092C291.84 219.092 291.625 220.582 291.625 222.563C291.625 224.472 291.4 226.172 291.125 226.342C290.85 226.512 290.625 228.34 290.625 230.405C290.625 232.469 290.423 234.537 290.175 235C289.927 235.463 289.627 240.57 289.509 246.349C289.351 254.038 289.103 257.244 288.584 258.303C287.868 259.765 287.581 259.981 284.875 261.093C284.05 261.432 283.038 261.87 282.625 262.067C282.213 262.263 280.806 262.736 279.5 263.117C278.194 263.499 277.125 263.986 277.125 264.201C277.125 264.416 276.45 264.592 275.625 264.592C274.8 264.592 274.125 264.817 274.125 265.092C274.125 265.367 273.563 265.592 272.875 265.592C272.188 265.592 271.625 265.817 271.625 266.092C271.625 266.367 270.95 266.592 270.125 266.592C269.3 266.592 268.625 266.817 268.625 267.092C268.625 267.367 268.076 267.592 267.405 267.592C266.733 267.592 266.073 267.773 265.936 267.993C265.8 268.214 264.549 268.704 263.157 269.084C261.765 269.463 260.625 269.957 260.625 270.183C260.625 270.408 260.076 270.592 259.405 270.592C258.733 270.592 258.073 270.773 257.936 270.993C257.8 271.214 256.535 271.708 255.125 272.092C253.715 272.476 252.45 272.971 252.314 273.191C252.022 273.664 250.042 273.721 248.916 273.289C248.481 273.122 248.125 272.597 248.125 272.122C248.125 271.647 247.971 271.105 247.783 270.916C246.163 269.297 245.422 259.859 246.647 256.469C247.196 254.953 247.19 254.294 246.611 252.497C246.229 251.312 245.733 250.213 245.508 250.055C244.44 249.304 241.069 238.768 240.761 235.217C240.635 233.774 240.349 232.592 240.123 232.592C239.898 232.592 239.596 231.298 239.452 229.717C239.064 225.452 238.571 223.092 238.071 223.092C237.826 223.092 237.625 222.417 237.625 221.592C237.625 220.426 237.403 220.092 236.625 220.092C235.847 220.092 235.625 220.426 235.625 221.592C235.625 222.417 235.4 223.092 235.125 223.092C234.85 223.092 234.625 223.767 234.625 224.592C234.625 225.417 234.4 226.092 234.125 226.092C233.85 226.092 233.625 226.88 233.625 227.842C233.625 228.805 233.4 229.592 233.125 229.592C232.85 229.592 232.625 230.492 232.625 231.592C232.625 232.692 232.4 233.592 232.125 233.592C231.85 233.592 231.625 234.492 231.625 235.592C231.625 236.692 231.4 237.592 231.125 237.592C230.85 237.592 230.625 238.144 230.625 238.819C230.625 240.02 230.365 240.802 228.62 244.842C228.144 245.942 227.599 247.349 227.407 247.967C227.215 248.586 226.863 249.092 226.625 249.092C226.387 249.092 226.05 249.541 225.876 250.089C225.702 250.638 225.293 251.378 224.967 251.734C223.415 253.43 222.561 256.092 223.569 256.092C224.825 256.092 225.206 266.74 224.159 272.592C223.839 274.38 223.368 279.105 223.112 283.092C222.505 292.537 222.13 295.592 221.577 295.592C221.329 295.592 221.125 296.38 221.125 297.342C221.125 298.305 220.9 299.092 220.625 299.092C220.35 299.092 220.125 299.655 220.125 300.342C220.125 301.03 219.9 301.592 219.625 301.592C219.35 301.592 219.125 302.042 219.125 302.592C219.125 303.142 218.9 303.592 218.625 303.592C218.35 303.592 218.125 304 218.125 304.498C218.125 304.996 217.675 305.887 217.125 306.477C216.575 307.067 216.125 307.795 216.125 308.094C216.125 308.393 215.602 309.161 214.963 309.8C213.774 310.989 213.248 312.134 212.073 316.092C211.408 318.333 210.58 319.592 209.772 319.592C209.141 319.592 207.625 317.685 207.625 316.89C207.625 316.51 207.269 316.063 206.834 315.896C205.687 315.456 205.625 315.491 205.625 316.592C205.625 317.142 205.4 317.592 205.125 317.592C204.85 317.592 204.625 318.155 204.625 318.842C204.625 319.53 204.4 320.092 204.125 320.092C203.85 320.092 203.625 320.655 203.625 321.342C203.625 322.03 203.4 322.592 203.125 322.592C202.85 322.592 202.625 323.267 202.625 324.092C202.625 324.917 202.4 325.592 202.125 325.592C201.85 325.592 201.625 326.27 201.625 327.099C201.625 327.928 201.414 328.997 201.155 329.474C200.897 329.952 200.524 331.017 200.325 331.842C200.043 333.02 199.926 333.128 199.782 332.342C199.482 330.701 197.903 325.862 197.579 325.592C197.414 325.455 197.132 324.739 196.951 324.002C196.771 323.265 196.287 322.325 195.874 321.913C195.462 321.501 195.125 320.808 195.125 320.374C195.125 319.179 193.26 320.484 192.491 322.217C192.156 322.974 191.711 323.592 191.503 323.592C191.295 323.592 191.125 324.042 191.125 324.592C191.125 325.142 190.9 325.592 190.625 325.592C190.35 325.592 190.125 326.042 190.125 326.592C190.125 327.142 189.9 327.592 189.625 327.592C189.35 327.592 189.125 328.141 189.125 328.813C189.125 329.484 188.9 330.172 188.625 330.342C188.35 330.512 188.125 331.268 188.125 332.022C188.125 332.776 187.919 333.606 187.667 333.867C187.212 334.34 187.087 335.414 186.156 346.842C185.47 355.277 184.805 361.843 183.906 369.092C183.479 372.53 182.883 377.48 182.58 380.092C182.278 382.705 181.828 386.417 181.58 388.342C180.819 394.24 180.111 400.127 179.595 404.842C179.324 407.317 178.882 411.255 178.612 413.592C178.343 415.93 177.987 419.698 177.822 421.967C177.658 424.236 177.321 426.092 177.074 426.092C176.827 426.092 176.625 427.33 176.625 428.842C176.625 430.355 176.4 431.592 176.125 431.592C175.85 431.592 175.625 431.952 175.625 432.392C175.625 433.583 172.803 435.994 170.711 436.591C169.701 436.878 167.863 437.24 166.625 437.393C165.388 437.546 163.925 437.862 163.375 438.094C162.32 438.54 160.443 438.987 157.75 439.433C156.856 439.581 156.125 439.902 156.125 440.147C156.125 440.392 155.464 440.592 154.655 440.592C153.846 440.592 153.045 440.817 152.875 441.092C152.705 441.367 152.232 441.592 151.823 441.592C150.846 441.592 148.625 443.834 148.625 444.82C148.625 445.245 148.4 445.592 148.125 445.592C147.829 445.592 147.625 447.426 147.625 450.092C147.625 452.759 147.829 454.592 148.125 454.592C148.4 454.592 148.625 454.93 148.625 455.342C148.625 455.755 148.85 456.092 149.125 456.092C149.4 456.092 149.625 456.542 149.625 457.092C149.625 457.648 149.959 458.092 150.375 458.092C150.788 458.092 151.125 458.317 151.125 458.592C151.125 458.867 151.463 459.092 151.875 459.092C152.288 459.092 152.625 459.317 152.625 459.592C152.625 459.867 152.88 460.092 153.192 460.092C153.504 460.092 154.291 460.711 154.941 461.467C156.568 463.359 156.606 467.504 155.017 469.765C153.433 472.018 152.802 472.592 151.911 472.592C151.479 472.592 151.125 472.817 151.125 473.092C151.125 473.367 150.689 473.592 150.155 473.592C149.621 473.592 149.062 473.79 148.912 474.033C148.762 474.275 148.018 474.622 147.258 474.805C146.497 474.988 144.975 475.366 143.875 475.646C136.235 477.59 113.214 480.982 101.486 481.892C99.0729 482.079 96.9784 482.426 96.8319 482.662C96.6859 482.899 94.7799 483.092 92.5959 483.092C90.4119 483.092 88.6254 483.298 88.6254 483.55C88.6254 483.801 87.2194 484.135 85.5004 484.291C77.4399 485.023 76.1254 485.212 76.1254 485.637C76.1254 485.887 75.0004 486.092 73.6254 486.092C72.2504 486.092 71.1254 486.317 71.1254 486.592C71.1254 486.867 70.3379 487.092 69.3754 487.092C68.4129 487.092 67.6254 487.317 67.6254 487.592C67.6254 487.867 66.9504 488.092 66.1254 488.092C65.3004 488.092 64.6254 488.317 64.6254 488.592C64.6254 488.867 64.2849 489.092 63.8684 489.092C62.3774 489.092 58.6254 491.938 58.6254 493.07C58.6254 493.357 58.4004 493.592 58.1254 493.592C57.8504 493.592 57.6254 493.93 57.6254 494.342C57.6254 494.755 57.4004 495.092 57.1254 495.092C56.8504 495.092 56.6254 495.38 56.6254 495.732C56.6254 496.084 56.1754 496.696 55.6254 497.092C55.0754 497.489 54.6254 498.057 54.6254 498.355C54.6254 498.653 53.8394 499.785 52.8784 500.87C50.7999 503.217 50.6969 503.346 49.1189 505.592C47.5664 507.802 46.6669 508.916 45.2504 510.382C44.6319 511.023 44.1254 511.79 44.1254 512.086C44.1254 512.383 43.3379 513.413 42.3754 514.376C41.4129 515.338 40.6254 516.319 40.6254 516.556C40.6254 516.793 39.9504 517.709 39.1254 518.592C38.3004 519.475 37.6244 520.343 37.6229 520.52C37.6219 520.697 36.9959 521.517 36.2319 522.342C35.4684 523.167 34.2969 524.63 33.6289 525.592C32.9604 526.555 31.7864 527.939 31.0199 528.668C30.2529 529.397 29.6254 530.263 29.6254 530.592C29.6254 530.922 28.9504 531.822 28.1254 532.592C27.3004 533.363 26.6254 534.198 26.6254 534.449C26.6254 534.699 26.2284 535.34 25.7429 535.873C25.2574 536.406 23.9639 537.964 22.8679 539.334C21.7719 540.705 20.3689 542.347 19.7504 542.982C19.1319 543.618 18.6254 544.347 18.6254 544.602C18.6254 544.857 17.6129 546.078 16.3754 547.316C15.1379 548.553 14.1254 549.797 14.1254 550.079C14.1254 550.361 13.9004 550.592 13.6254 550.592C13.3504 550.592 13.1254 550.88 13.1254 551.232C13.1254 551.584 12.6754 552.196 12.1254 552.592C11.5754 552.989 11.1254 553.468 11.1254 553.658C11.1254 554.073 9.12386 556.308 4.25036 561.336C2.25686 563.393 0.625361 565.286 0.625361 565.543C0.625361 565.799 0.344361 566.122 0.000361056 566.261C-0.343139 566.4 244.456 566.531 544 566.553L1088.63 566.592V564.592C1088.63 563.492 1088.4 562.592 1088.13 562.592C1087.85 562.592 1087.63 562.142 1087.63 561.592C1087.63 561.042 1087.4 560.592 1087.13 560.592C1086.85 560.592 1086.63 560.142 1086.63 559.592C1086.63 559.042 1086.4 558.592 1086.13 558.592C1085.85 558.592 1085.63 558.364 1085.63 558.085C1085.63 557.436 1079.04 546.397 1078.52 546.176C1078.3 546.084 1078.13 545.627 1078.13 545.161C1078.13 544.695 1077.68 543.989 1077.13 543.592C1076.58 543.196 1076.13 542.471 1076.13 541.982C1076.13 541.493 1075.9 541.092 1075.63 541.092C1075.35 541.092 1075.13 540.755 1075.13 540.342C1075.13 539.93 1074.9 539.592 1074.63 539.592C1074.35 539.592 1074.13 539.142 1074.13 538.592C1074.13 538.042 1073.9 537.592 1073.63 537.592C1073.35 537.592 1073.13 537.255 1073.13 536.842C1073.13 536.43 1072.9 536.092 1072.63 536.092C1072.35 536.092 1072.13 535.755 1072.13 535.342C1072.13 534.93 1071.9 534.592 1071.63 534.592C1071.35 534.592 1071.13 534.142 1071.13 533.592C1071.13 533.042 1070.92 532.592 1070.66 532.592C1070.4 532.592 1070.05 532.144 1069.88 531.595C1069.7 531.047 1069.29 530.316 1068.95 529.97C1068.62 529.625 1067.29 527.655 1066 525.592C1064.71 523.53 1063.48 521.617 1063.26 521.342C1063.05 521.067 1062.56 520.224 1062.17 519.467C1061.78 518.711 1061.27 518.092 1061.04 518.092C1060.81 518.092 1060.63 517.692 1060.63 517.203C1060.63 516.713 1060.18 515.989 1059.63 515.592C1059.08 515.196 1058.63 514.471 1058.63 513.982C1058.63 513.493 1058.4 513.092 1058.13 513.092C1057.85 513.092 1057.63 512.755 1057.63 512.342C1057.63 511.93 1057.4 511.592 1057.13 511.592C1056.85 511.592 1056.63 511.365 1056.63 511.087C1056.63 510.659 1051.36 502.328 1050.63 501.592C1050.49 501.455 1050.09 500.836 1049.75 500.217C1048.2 497.424 1047.82 496.832 1047 495.898C1046.52 495.351 1046.13 494.609 1046.13 494.248C1046.13 493.887 1045.9 493.592 1045.63 493.592C1045.35 493.592 1045.13 493.255 1045.13 492.842C1045.13 492.43 1044.9 492.092 1044.63 492.092C1044.35 492.092 1044.13 491.779 1044.13 491.396C1044.13 490.568 1043.05 490.092 1041.18 490.092C1040.44 490.092 1039.61 489.887 1039.35 489.636C1039.09 489.385 1037.53 489.043 1035.88 488.876C1034.23 488.709 1031.58 488.444 1030 488.288C1028.42 488.131 1027.13 487.798 1027.13 487.548C1027.13 487.297 1025.78 487.092 1024.13 487.092C1022.46 487.092 1021.13 486.87 1021.13 486.592C1021.13 486.314 1019.79 486.092 1018.13 486.092C1016.46 486.092 1015.13 485.87 1015.13 485.592C1015.13 485.312 1013.74 485.092 1011.98 485.092C1010.24 485.092 1008.61 484.887 1008.35 484.636C1007.9 484.204 1006.34 483.976 999.375 483.327C997.725 483.173 995.925 482.85 995.375 482.609C994.825 482.367 993.025 482.018 991.375 481.833C987.554 481.405 984.083 480.887 978.125 479.858C975.513 479.406 971.8 478.808 969.875 478.529C967.95 478.249 965.025 477.801 963.375 477.533C958.621 476.759 954.101 476.125 951.125 475.814C949.613 475.656 947.925 475.327 947.375 475.084C946.364 474.636 943.652 474.278 937.5 473.782C935.644 473.633 934.125 473.304 934.125 473.051C934.125 472.799 932.55 472.592 930.625 472.592H927.125V469.092C927.125 467.092 926.911 465.592 926.625 465.592C926.313 465.592 926.125 462.676 926.125 457.842C926.125 453.58 925.925 450.092 925.681 450.092C925.436 450.092 925.095 447.674 924.922 444.717C924.407 435.902 923.511 427.789 922.173 419.842C920.944 412.539 920.662 411.111 919.683 407.226C919.112 404.962 918.434 402.712 918.177 402.226C917.919 401.74 917.438 400.611 917.106 399.717C916.775 398.824 916.321 398.092 916.098 398.092C915.875 398.092 915.55 397.642 915.375 397.092C915.201 396.542 914.736 396.092 914.342 396.092C913.948 396.092 913.625 395.89 913.625 395.643C913.625 395.395 912.669 395.078 911.5 394.937C908.936 394.628 906.725 394.154 905.375 393.625C904.825 393.409 902.35 392.595 899.875 391.816C897.4 391.037 895.15 390.259 894.875 390.086C894.6 389.914 893.363 389.468 892.125 389.095C890.888 388.723 889.661 388.232 889.4 388.005C889.139 387.778 888.408 387.592 887.775 387.592C887.143 387.592 886.625 387.367 886.625 387.092C886.625 386.817 885.95 386.592 885.125 386.592C884.3 386.592 883.625 386.367 883.625 386.092C883.625 385.817 882.95 385.592 882.125 385.592C881.3 385.592 880.625 385.367 880.625 385.092C880.625 384.817 879.725 384.592 878.625 384.592C877.525 384.592 876.625 384.367 876.625 384.092C876.625 383.817 875.613 383.592 874.375 383.592C873.138 383.592 872.125 383.367 872.125 383.092C872.125 382.808 870.659 382.592 868.725 382.592C866.855 382.592 865.111 382.384 864.85 382.129C864.589 381.874 862.575 381.546 860.375 381.4C856.296 381.13 851.516 380.603 844.375 379.635C842.175 379.336 838.575 378.889 836.375 378.642C831.948 378.143 826.054 377.318 810.375 375.004C795.684 372.836 793.978 372.754 791.167 374.08C789.164 375.025 787.549 376.616 786.134 379.04C785.908 379.427 785.369 379.601 784.926 379.431C784.22 379.16 784.125 377.563 784.125 365.887C784.125 357.603 783.938 352.536 783.625 352.342C783.35 352.172 783.125 350.822 783.125 349.342C783.125 347.862 782.9 346.512 782.625 346.342C782.35 346.172 782.125 344.697 782.125 343.063C782.125 341.416 781.902 340.092 781.625 340.092C781.347 340.092 781.125 338.759 781.125 337.092C781.125 335.426 780.903 334.092 780.625 334.092C780.347 334.092 780.125 332.759 780.125 331.092C780.125 329.426 779.903 328.092 779.625 328.092C779.343 328.092 779.125 326.676 779.125 324.842C779.125 323.009 778.907 321.592 778.625 321.592C778.35 321.592 778.125 320.625 778.125 319.442C778.125 318.26 777.92 317.079 777.669 316.817C777.418 316.556 777.097 315.105 776.955 313.592C776.813 312.08 776.447 309.605 776.142 308.092C775.466 304.747 774.828 301.276 774.199 297.519C773.938 295.966 773.581 294.24 773.404 293.682C772.634 291.256 770.351 277.675 769.817 272.342C769.652 270.692 769.316 269.128 769.071 268.867C768.826 268.606 768.625 266.682 768.625 264.592C768.625 262.502 768.412 260.578 768.152 260.317C767.892 260.056 767.559 256.692 767.411 252.842C767.264 248.992 767.012 243.394 766.851 240.401C766.659 236.831 766.742 234.776 767.092 234.426C767.385 234.132 767.625 232.946 767.625 231.79C767.625 229.577 768.918 226.669 770.955 224.298C771.614 223.531 772.278 222.327 772.431 221.623C772.584 220.919 772.809 220.027 772.931 219.641C773.437 218.039 771.056 213.38 768.551 211.073C767.988 210.554 767.629 209.167 767.45 206.823C767.067 201.799 766.585 199.092 766.073 199.092C765.827 199.092 765.625 198.417 765.625 197.592C765.625 196.767 765.4 196.092 765.125 196.092C764.85 196.092 764.625 195.417 764.625 194.592C764.625 193.767 764.4 193.092 764.125 193.092C763.85 193.092 763.625 192.543 763.625 191.872C763.625 191.2 763.4 190.512 763.125 190.342C762.85 190.172 762.625 189.417 762.625 188.663C762.625 187.909 762.422 187.078 762.174 186.817C761.925 186.556 761.598 185.33 761.447 184.092C761.142 181.591 760.429 177.515 759.698 174.092C759.434 172.855 758.99 170.605 758.711 169.092C758.433 167.58 757.837 164.655 757.387 162.592C756.938 160.53 756.338 157.492 756.055 155.842C755.771 154.192 755.321 151.717 755.053 150.342C754.785 148.967 754.445 146.83 754.297 145.592C754.149 144.355 753.825 143.129 753.577 142.867C753.328 142.606 753.125 141.326 753.125 140.022C753.125 138.718 752.9 137.512 752.625 137.342C752.35 137.172 752.125 135.922 752.125 134.563C752.125 133.204 751.9 132.092 751.625 132.092C751.347 132.092 751.125 130.759 751.125 129.092C751.125 127.426 750.903 126.092 750.625 126.092C750.35 126.092 750.125 124.967 750.125 123.592C750.125 122.217 749.9 121.092 749.625 121.092C749.35 121.092 749.125 119.981 749.125 118.622C749.125 117.263 748.9 116.012 748.625 115.842C748.35 115.672 748.125 114.354 748.125 112.913C748.125 111.471 747.922 110.078 747.674 109.817C747.425 109.556 747.096 108.33 746.942 107.092C746.633 104.606 745.944 100.306 745.179 96.0922C744.904 94.5797 744.451 92.0267 744.171 90.4187C743.531 86.7417 743.167 85.5922 742.645 85.5922C741.973 85.5922 741.626 87.0062 741.621 89.7582C741.619 91.1792 741.261 94.8172 740.826 97.8422C740.391 100.867 739.826 105.367 739.571 107.842C739.315 110.317 738.881 114.142 738.606 116.342C737.684 123.72 737.129 128.814 736.823 132.717C736.656 134.849 736.318 136.592 736.072 136.592C735.826 136.592 735.625 138.392 735.625 140.592C735.625 142.926 735.417 144.592 735.125 144.592C734.827 144.592 734.625 146.509 734.625 149.342C734.625 152.176 734.423 154.092 734.125 154.092C733.84 154.092 733.625 155.592 733.625 157.592C733.625 159.592 733.411 161.092 733.125 161.092C732.835 161.092 732.625 162.726 732.625 164.992C732.625 167.137 732.418 169.106 732.164 169.367C731.911 169.628 731.582 171.417 731.434 173.342C730.504 185.439 729.87 189.209 728.237 192.342C726.428 195.815 725.826 196.365 724.875 195.414C724.463 195.001 724.125 194.31 724.125 193.878C724.125 193.446 723.9 193.092 723.625 193.092C723.35 193.092 723.125 192.642 723.125 192.092C723.125 191.542 722.9 191.092 722.625 191.092C722.35 191.092 722.125 190.642 722.125 190.092C722.125 189.542 721.9 189.092 721.625 189.092C721.35 189.092 721.125 188.53 721.125 187.842C721.125 187.155 720.9 186.592 720.625 186.592C720.35 186.592 720.125 186.247 720.125 185.826C720.125 185.404 719.345 184.279 718.392 183.326C716.847 181.781 716.368 181.592 713.992 181.592C710.873 181.592 708.635 180.705 708.629 179.467C708.627 178.986 708.4 178.592 708.125 178.592C707.84 178.592 707.625 177.092 707.625 175.092C707.625 173.092 707.411 171.592 707.125 171.592C706.843 171.592 706.625 170.176 706.625 168.342C706.625 166.509 706.407 165.092 706.125 165.092C705.85 165.092 705.625 164.417 705.625 163.592C705.625 162.767 705.4 162.092 705.125 162.092C704.85 162.092 704.625 161.745 704.625 161.321C704.625 160.897 704.175 160.067 703.625 159.477L702.625 158.404V160.748C702.625 162.037 702.42 163.092 702.17 163.092C701.919 163.092 701.596 164.386 701.452 165.967C701.308 167.549 701.037 169.698 700.85 170.743C700.655 171.834 700.773 173.584 701.127 174.848C701.466 176.06 701.6 177.623 701.425 178.322C701.149 179.421 700.833 179.592 699.08 179.592C697.966 179.592 696.739 179.278 696.355 178.893C695.222 177.76 694.14 174.039 694.133 171.247C694.129 169.819 693.9 168.512 693.625 168.342C693.35 168.172 693.125 167.693 693.125 167.277C693.125 166.861 692.814 166.209 692.433 165.828C691.442 164.838 688.821 165.87 686.75 168.065L685.125 169.788V178.039C685.125 182.577 684.893 188.102 684.608 190.316C683.623 197.992 682.052 209.357 681.564 212.342C680.146 221.014 678.672 233.228 677.839 243.217C677.661 245.349 677.316 247.092 677.071 247.092C676.826 247.092 676.625 248.555 676.625 250.342C676.625 252.176 676.407 253.592 676.125 253.592C675.85 253.592 675.625 254.704 675.625 256.063C675.625 257.422 675.4 258.672 675.125 258.842C674.85 259.012 674.625 259.912 674.625 260.842C674.625 261.772 674.424 262.658 674.178 262.81C672.986 263.546 672.237 276.653 673.201 279.915C673.554 281.113 674.019 282.092 674.234 282.092C674.449 282.092 674.625 282.542 674.625 283.092C674.625 283.642 674.85 284.092 675.125 284.092C675.4 284.092 675.625 284.88 675.625 285.842C675.625 286.805 675.85 287.592 676.125 287.592C676.439 287.592 676.625 290.759 676.625 296.092C676.625 301.426 676.439 304.592 676.125 304.592C675.85 304.592 675.625 304.02 675.625 303.321C675.625 302.622 675.175 301.567 674.625 300.977L673.625 299.904V303.998C673.625 306.25 673.415 308.092 673.157 308.092C672.9 308.092 672.587 310.399 672.462 313.217C672.336 316.036 671.98 320.592 671.67 323.342C670.988 329.402 670.453 336.117 669.421 351.592C668.73 361.946 667.467 373.075 666.1 380.842C665.858 382.217 665.508 384.418 665.321 385.732C665.135 387.046 664.79 388.241 664.554 388.386C664.318 388.532 664.125 389.412 664.125 390.342C664.125 391.272 663.9 392.172 663.625 392.342C663.35 392.512 663.125 393.313 663.125 394.122C663.125 394.931 662.9 395.592 662.625 395.592C662.35 395.592 662.125 396.058 662.125 396.628C662.125 397.585 661.077 399.092 660.411 399.092C660.254 399.092 660.125 397.643 660.125 395.872C660.125 394.1 659.9 392.512 659.625 392.342C659.35 392.172 659.125 391.476 659.125 390.795C659.125 388.933 655.992 384.592 654.648 384.592C654.36 384.592 654.125 384.367 654.125 384.092C654.125 383.817 653.87 383.592 653.559 383.592C652.682 383.592 651.084 381.51 650.775 379.964C650.621 379.198 650.3 378.45 650.061 378.302C649.821 378.154 649.625 377.497 649.625 376.842C649.625 376.187 649.4 375.512 649.125 375.342C648.85 375.172 648.625 374.484 648.625 373.813C648.625 373.141 648.4 372.592 648.125 372.592C647.85 372.592 647.625 372.03 647.625 371.342C647.625 370.655 647.4 370.092 647.125 370.092C646.85 370.092 646.625 369.417 646.625 368.592C646.625 367.767 646.4 367.092 646.125 367.092C645.85 367.092 645.625 366.642 645.625 366.092C645.625 365.542 645.4 365.092 645.125 365.092C644.85 365.092 644.625 364.417 644.625 363.592C644.625 362.767 644.4 362.092 644.125 362.092C643.85 362.092 643.625 361.639 643.625 361.085C643.625 360.532 643.419 359.688 643.167 359.21C642.554 358.049 641.369 353.83 640.115 348.342C639.55 345.867 638.887 343.167 638.643 342.342C638.398 341.517 637.708 339.155 637.11 337.092C636.512 335.03 635.821 332.952 635.574 332.474C635.327 331.997 635.125 331.054 635.125 330.379C635.125 329.704 634.9 329.012 634.625 328.842C634.35 328.672 634.125 327.872 634.125 327.063C634.125 326.254 633.9 325.592 633.625 325.592C633.35 325.592 633.125 324.692 633.125 323.592C633.125 322.492 632.9 321.592 632.625 321.592C632.35 321.592 632.125 320.692 632.125 319.592C632.125 318.492 631.9 317.592 631.625 317.592C631.35 317.592 631.125 316.58 631.125 315.342C631.125 314.105 630.919 313.092 630.668 313.092C630.416 313.092 630.082 311.686 629.926 309.967C629.769 308.249 629.446 304.705 629.208 302.092C628.712 296.658 627.752 292.984 627.125 294.12C626.905 294.517 626.362 296.867 625.918 299.342C624.834 305.385 622.673 314.636 622.093 315.71C621.836 316.188 621.625 317.243 621.625 318.056C621.625 318.868 621.4 319.672 621.125 319.842C620.85 320.012 620.625 320.925 620.625 321.872C620.625 322.818 620.425 323.592 620.18 323.592C619.935 323.592 619.598 324.38 619.43 325.342C619.262 326.305 618.988 327.88 618.821 328.842C618.653 329.805 618.315 330.592 618.071 330.592C617.826 330.592 617.625 331.38 617.625 332.342C617.625 333.305 617.4 334.092 617.125 334.092C616.85 334.092 616.625 334.992 616.625 336.092C616.625 337.192 616.4 338.092 616.125 338.092C615.85 338.092 615.625 338.992 615.625 340.092C615.625 341.192 615.4 342.092 615.125 342.092C614.85 342.092 614.625 342.866 614.625 343.813C614.625 344.759 614.4 345.672 614.125 345.842C613.85 346.012 613.625 347.15 613.625 348.372C613.625 349.593 613.423 350.592 613.176 350.592C612.928 350.592 612.611 351.549 612.47 352.717C611.921 357.28 608.589 367.092 607.589 367.092C607.334 367.092 607.125 367.542 607.125 368.092C607.125 368.642 606.9 369.092 606.625 369.092C606.35 369.092 606.125 369.542 606.125 370.092C606.125 370.642 605.9 371.092 605.625 371.092C605.35 371.092 605.125 371.542 605.125 372.092C605.125 372.642 604.9 373.092 604.625 373.092C604.35 373.092 604.125 373.88 604.125 374.842C604.125 375.805 603.9 376.592 603.625 376.592C603.309 376.592 603.125 380.259 603.125 386.592C603.125 392.926 603.309 396.592 603.625 396.592C603.925 396.592 604.125 398.592 604.125 401.592C604.125 404.592 603.925 406.592 603.625 406.592C603.35 406.592 603.125 407.155 603.125 407.842C603.125 408.53 603.35 409.092 603.625 409.092C603.9 409.092 604.125 409.5 604.125 409.998C604.125 410.497 604.575 411.836 605.125 412.974C605.675 414.113 606.125 415.347 606.125 415.718C606.125 416.089 606.407 416.674 606.75 417.018C607.226 417.494 607.344 420.885 607.244 431.243C607.172 438.723 606.982 445.255 606.822 445.759C606.567 446.564 606.155 446.639 603.453 446.369C601.76 446.2 597.675 445.857 594.375 445.605C586.473 445.003 583.625 444.589 583.625 444.042C583.625 443.795 583.37 443.592 583.059 443.592C582.747 443.592 582.072 443.108 581.559 442.516C580.675 441.497 580.625 440.151 580.625 417.354C580.625 392.823 580.049 372.322 579.044 361.092C578.072 350.218 578.013 347.911 578.636 345.092C579.276 342.195 580.719 338.937 582.014 337.464C582.954 336.395 582.915 333.602 581.934 331.705C579.969 327.905 579.48 323.283 579.069 304.592C578.579 282.353 577.941 276.181 575.957 274.451C575.394 273.96 574.621 273.679 574.239 273.826C573.856 273.972 573.449 274.092 573.334 274.092C573.219 274.092 573.125 274.992 573.125 276.092C573.125 277.192 572.9 278.092 572.625 278.092C572.327 278.092 572.125 280.009 572.125 282.842C572.125 285.676 571.923 287.592 571.625 287.592C571.35 287.592 571.125 286.805 571.125 285.842C571.125 284.88 570.923 284.092 570.676 284.092C570.428 284.092 570.107 283.136 569.962 281.967C569.817 280.799 569.476 278.83 569.206 277.592C568.935 276.355 568.493 274.217 568.225 272.842C567.956 271.467 567.125 267.642 566.378 264.342C564.565 256.326 564.154 254.276 563.799 251.467C563.633 250.161 563.302 249.092 563.062 249.092C562.822 249.092 562.625 248.093 562.625 246.872C562.625 245.65 562.4 244.512 562.125 244.342C561.85 244.172 561.625 243.034 561.625 241.813C561.625 240.591 561.4 239.592 561.125 239.592C560.85 239.592 560.625 238.467 560.625 237.092C560.625 235.717 560.4 234.592 560.125 234.592C559.85 234.592 559.625 233.467 559.625 232.092C559.625 230.717 559.4 229.592 559.125 229.592C558.85 229.592 558.625 228.58 558.625 227.342C558.625 226.105 558.4 225.092 558.125 225.092C557.85 225.092 557.625 224.093 557.625 222.872C557.625 221.65 557.4 220.512 557.125 220.342C556.85 220.172 556.625 219.047 556.625 217.842C556.625 216.637 556.4 215.512 556.125 215.342C555.85 215.172 555.622 214.203 555.618 213.188C555.613 212.173 555.392 211.005 555.125 210.592C554.711 209.951 554.639 209.969 554.633 210.717C554.629 211.198 554.424 211.592 554.178 211.592C553.932 211.592 553.619 212.436 553.482 213.467C553.345 214.499 552.863 216.917 552.41 218.842C551.472 222.827 550.838 225.743 550.124 229.342C549.851 230.717 549.388 232.855 549.095 234.092C548.402 237.019 547.645 240.862 547.297 243.22C547.144 244.253 546.818 245.223 546.572 245.375C546.326 245.527 546.125 246.65 546.125 247.872C546.125 249.093 545.9 250.092 545.625 250.092C545.35 250.092 545.125 251.105 545.125 252.342C545.125 253.58 544.9 254.592 544.625 254.592C544.35 254.592 544.125 255.605 544.125 256.842C544.125 258.08 543.9 259.092 543.625 259.092C543.35 259.092 543.125 260.105 543.125 261.342C543.125 262.58 542.9 263.592 542.625 263.592C542.35 263.592 542.125 264.672 542.125 265.992C542.125 267.312 541.923 268.606 541.676 268.867C541.43 269.128 541.104 270.242 540.952 271.342C540.528 274.413 538.434 284.962 537.625 288.092C537.377 289.055 536.813 291.53 536.372 293.592C534.754 301.156 533.935 304.6 533.091 307.378C532.835 308.222 532.625 309.629 532.625 310.503C532.625 311.377 532.4 312.092 532.125 312.092C531.85 312.092 531.625 312.866 531.625 313.813C531.625 314.759 531.4 315.672 531.125 315.842C530.85 316.012 530.625 316.925 530.625 317.872C530.625 318.818 530.4 319.592 530.125 319.592C529.85 319.592 529.625 320.492 529.625 321.592C529.625 322.692 529.4 323.592 529.125 323.592C528.85 323.592 528.625 324.267 528.625 325.092C528.625 325.917 528.4 326.592 528.125 326.592C527.85 326.592 527.625 327.267 527.625 328.092C527.625 328.917 527.424 329.592 527.178 329.592C526.761 329.592 526.135 332.559 526.071 334.842C526.02 336.64 526.762 338.826 527.703 339.651C528.21 340.096 528.625 340.827 528.625 341.276C528.625 341.725 528.85 342.092 529.125 342.092C529.4 342.092 529.625 343.105 529.625 344.342C529.625 345.58 529.4 346.592 529.125 346.592C528.85 346.592 528.625 347.267 528.625 348.092C528.625 348.917 528.4 349.592 528.125 349.592C527.85 349.592 527.625 350.042 527.625 350.592C527.625 351.442 527.292 351.592 525.405 351.592C524.183 351.592 523.045 351.367 522.875 351.092C522.705 350.817 521.918 350.592 521.125 350.592C520.333 350.592 519.545 350.367 519.375 350.092C519.205 349.817 518.53 349.592 517.875 349.592C517.22 349.592 516.545 349.367 516.375 349.092C516.205 348.817 515.601 348.592 515.031 348.592C514.462 348.592 512.169 348.013 509.936 347.306C500.832 344.421 499.714 344.092 499.012 344.092C498.61 344.092 497.889 343.66 497.411 343.131C496.597 342.233 496.56 340.133 496.826 310.756C497.174 272.474 497.784 259.092 499.182 259.092C499.426 259.092 499.625 258.642 499.625 258.092C499.625 257.542 499.85 257.092 500.125 257.092C500.4 257.092 500.625 256.417 500.625 255.592C500.625 254.767 500.85 254.092 501.125 254.092C501.414 254.092 501.625 252.519 501.625 250.372C501.625 248.325 501.85 246.512 502.125 246.342C502.436 246.15 502.625 241.504 502.625 234.063C502.625 227.23 502.82 222.092 503.079 222.092C503.329 222.092 503.638 220.911 503.767 219.467C503.896 218.024 504.281 215.942 504.622 214.842C505.609 211.661 505.777 208.234 505.066 205.823C504.703 204.596 504.231 203.592 504.016 203.592C503.801 203.592 503.625 203.142 503.625 202.592C503.625 202.042 503.4 201.592 503.125 201.592C502.85 201.592 502.625 201.03 502.625 200.342C502.625 199.655 502.4 199.092 502.125 199.092C501.85 199.092 501.625 198.53 501.625 197.842C501.625 197.155 501.4 196.592 501.125 196.592C500.85 196.592 500.625 195.805 500.625 194.842C500.625 193.88 500.4 193.092 500.125 193.092C499.85 193.092 499.625 192.305 499.625 191.342C499.625 190.38 499.4 189.592 499.125 189.592C498.85 189.592 498.625 188.818 498.625 187.872C498.625 186.925 498.4 186.012 498.125 185.842C497.85 185.672 497.625 184.66 497.625 183.592C497.625 182.525 497.424 181.527 497.178 181.375C496.932 181.223 496.606 180.253 496.453 179.22C495.507 172.81 494.042 167.406 492.282 163.828C491.744 162.736 491.013 160.83 490.658 159.592C490.302 158.355 489.825 156.892 489.597 156.342C489.176 155.329 488.803 152.977 488.307 148.217C488.156 146.773 487.829 145.592 487.579 145.592C487.329 145.592 487.125 144.692 487.125 143.592C487.125 142.492 486.9 141.592 486.625 141.592C486.35 141.592 486.125 140.917 486.125 140.092C486.125 139.267 485.9 138.592 485.625 138.592C485.35 138.592 485.125 138.03 485.125 137.342C485.125 136.655 484.9 136.092 484.625 136.092C484.35 136.092 484.125 135.192 484.125 134.092C484.125 132.992 483.9 132.092 483.625 132.092C483.35 132.092 483.125 131.192 483.125 130.092C483.125 128.992 482.9 128.092 482.625 128.092C482.35 128.092 482.125 127.431 482.125 126.622C482.125 125.813 481.9 125.012 481.625 124.842C481.35 124.672 481.125 124.093 481.125 123.556C481.125 123.018 480.905 122.188 480.635 121.71C479.43 119.574 475.625 106.935 475.625 105.068C475.625 104.531 475.4 104.092 475.125 104.092C474.85 104.092 474.625 103.206 474.625 102.122C474.625 101.038 474.4 100.012 474.125 99.8422C473.85 99.6722 473.625 98.7592 473.625 97.8127C473.625 96.8662 473.4 96.0922 473.125 96.0922C472.85 96.0922 472.625 95.0797 472.625 93.8422C472.625 92.6047 472.4 91.5922 472.125 91.5922C471.85 91.5922 471.625 90.6922 471.625 89.5922C471.625 88.4922 471.4 87.5922 471.125 87.5922C470.85 87.5922 470.625 86.5797 470.625 85.3422C470.625 84.1047 470.4 83.0922 470.125 83.0922C469.85 83.0922 469.625 82.2057 469.625 81.1217C469.625 80.0377 469.4 79.0122 469.125 78.8422C468.85 78.6722 468.625 77.5342 468.625 76.3127C468.625 75.0912 468.423 74.0922 468.176 74.0922C467.928 74.0922 467.607 73.1357 467.462 71.9672C467.317 70.7982 466.971 68.8297 466.694 67.5922C464.599 58.2332 464.078 55.9602 463.367 53.0922C462.242 48.5522 461.612 45.6342 461.316 43.5922C461.177 42.6297 460.866 41.3922 460.625 40.8422C460.201 39.8727 459.878 38.1377 459.302 33.7172C459.149 32.5487 458.822 31.5922 458.575 31.5922C458.328 31.5922 458.125 30.7057 458.125 29.6217C458.125 28.5377 457.9 27.5122 457.625 27.3422C457.35 27.1722 457.125 26.0342 457.125 24.8127C457.125 23.5912 456.9 22.5922 456.625 22.5922C456.35 22.5922 456.125 21.5797 456.125 20.3422C456.125 19.1047 455.9 18.0922 455.625 18.0922C455.35 18.0922 455.125 17.1922 455.125 16.0922C455.125 14.9922 454.9 14.0922 454.625 14.0922C454.35 14.0922 454.125 13.2057 454.125 12.1217C454.125 11.0377 453.9 10.0122 453.625 9.84217C453.35 9.67217 453.125 8.88467 453.125 8.09217C453.125 7.29967 452.9 6.51217 452.625 6.34217C452.35 6.17217 452.125 5.48067 452.125 4.80567C452.125 4.13067 451.923 3.18767 451.677 2.71017C451.43 2.23267 451.015 1.28367 450.755 0.601171C450.339 -0.489829 450.215 -0.248329 449.724 2.60117ZM609.318 224.767C609.012 225.118 608.352 226.266 607.852 227.32L606.943 229.235L608.54 230.662C609.969 231.938 610.07 232.204 609.506 233.188C608.176 235.507 606.707 236.592 604.898 236.592C603.923 236.592 603.125 236.817 603.125 237.092C603.125 237.396 600.936 237.592 597.558 237.592C592.106 237.592 591.967 237.564 590.809 236.217C590.159 235.461 589.626 234.651 589.626 234.418C589.626 234.184 588.95 233.363 588.125 232.592C587.3 231.822 586.609 231 586.589 230.767C586.532 230.09 583.122 227.428 582.768 227.783C582.477 228.074 583.159 229.586 585.163 233.087C585.555 233.771 586.269 234.698 586.75 235.146C587.232 235.593 587.625 236.232 587.625 236.565C587.625 236.898 588.469 237.998 589.5 239.01C590.532 240.021 592.423 242.085 593.703 243.596C594.983 245.106 596.84 247.214 597.828 248.28C599.852 250.462 599.928 250.718 598.875 251.771C597.997 252.649 597.771 261.092 598.625 261.092C598.9 261.092 599.158 261.823 599.199 262.717C599.239 263.611 599.431 262.358 599.625 259.934C600.022 254.974 600.899 253.295 602.34 254.735C602.772 255.167 603.125 255.987 603.125 256.557C603.125 257.126 603.35 257.592 603.625 257.592C603.9 257.592 604.125 258.267 604.125 259.092C604.125 259.917 604.35 260.592 604.625 260.592C604.9 260.592 605.125 261.267 605.125 262.092C605.125 262.917 605.322 263.592 605.563 263.592C605.803 263.592 606.128 264.229 606.283 265.008C606.614 266.661 609.18 269.592 610.296 269.592C610.72 269.592 611.205 269.817 611.375 270.092C611.545 270.367 612.121 270.592 612.655 270.592C613.37 270.592 613.625 270.939 613.625 271.909C613.625 274.593 617.394 276.09 619.424 274.212C621.139 272.625 621.625 271.156 621.625 267.563C621.625 263.921 621.033 262.592 619.411 262.592C618.979 262.592 618.625 262.367 618.625 262.092C618.625 261.817 618.272 261.592 617.84 261.592C616.829 261.592 615.625 260.388 615.625 259.378C615.625 258.946 615.4 258.592 615.125 258.592C614.85 258.592 614.625 257.805 614.625 256.842C614.625 255.88 614.823 255.092 615.065 255.092C615.306 255.092 615.784 254.417 616.125 253.592C616.467 252.767 616.944 252.092 617.186 252.092C617.428 252.092 617.625 251.192 617.625 250.092C617.625 248.992 617.85 248.092 618.125 248.092C618.422 248.092 618.625 246.259 618.625 243.592C618.625 240.926 618.422 239.092 618.125 239.092C617.85 239.092 617.625 237.855 617.625 236.342C617.625 234.83 617.4 233.592 617.125 233.592C616.85 233.592 616.625 233.027 616.625 232.335C616.625 231.644 616.427 230.688 616.184 230.21C615.941 229.733 615.434 228.667 615.059 227.842C614.132 225.809 613.385 225.092 612.19 225.092C611.637 225.092 611.045 224.867 610.875 224.592C610.469 223.935 610 223.987 609.318 224.767ZM606.125 244.842V250.092H604.362C602.95 250.092 602.179 249.668 600.487 247.958C599.326 246.785 597.779 245.041 597.051 244.083C596.323 243.126 595.268 241.86 594.706 241.27C594.145 240.681 593.822 240.062 593.989 239.895C594.155 239.729 596.954 239.592 600.209 239.592H606.125V244.842Z" fill="#111111"/>
</svg>
